# xmcd
#
# Track frame offsets:
#	150
#	12320
#	24516
#	37549
#	50717
#	63784
#	76840
#	90387
#	102898
#	114572
#	126707
#	140465
#	155607
#	168605
#	182940
#	196737
#	209937
#	221409
#	235379
#	248172
#
# Disc length: 3475 seconds
#
# Revision: 1
# Processed by: cddbd v1.5.1PL0 Copyright (c) Steve Scherf et al.
# Submitted via: EasyCDDAExtractor 7.0.9.1
#
DISCID=180d9114
DTITLE=Dinah Washington - Legendary Song Stylist
DYEAR=1999
DGENRE=Blues
TTITLE0=A Slick Chick (On The Mellow Side)
TTITLE1=Walking Blues
TTITLE2=Evil Gal Blues
TTITLE3=Chewin' Mama Blues
TTITLE4=Beggin' Mama Blues
TTITLE5=Blues For A Day
TTITLE6=Stairway To The Stars
TTITLE7=I Can't Get Started
TTITLE8=There's Got To Be A Change
TTITLE9=Pacific Coast Blues
TTITLE10=Salty Papa Blues
TTITLE11=Blow Top Blues
TTITLE12=All Or Nothing
TTITLE13=I Know How To Do It
TTITLE14=No Voot, No Boot
TTITLE15=When A Woman Loves A Man
TTITLE16=Fool That I Am
TTITLE17=My Lovin' Papa
TTITLE18=Homeward Bound
TTITLE19=Wise Woman Blues
EXTD=
EXTT0=
EXTT1=
EXTT2=
EXTT3=
EXTT4=
EXTT5=
EXTT6=
EXTT7=
EXTT8=
EXTT9=
EXTT10=
EXTT11=
EXTT12=
EXTT13=
EXTT14=
EXTT15=
EXTT16=
EXTT17=
EXTT18=
EXTT19=
PLAYORDER=
